<svg width="38" height="36" viewBox="0 0 38 36" fill="gray" xmlns="http://www.w3.org/2000/svg">
  <path
    d="M-4.57764e-05 18C-4.57764e-05 27.9139 8.36751 36 18.6982 36C29.0289 36 37.3965 27.9139 37.3965 18C37.3965 8.08606 28.9967 0 18.6982 0C8.39969 0 -4.57764e-05 8.08606 -4.57764e-05 18ZM34.7575 18C34.7575 26.5198 27.5485 33.4596 18.6982 33.4596C9.84792 33.4596 2.63895 26.5198 2.63895 18C2.63895 9.48021 9.84792 2.54045 18.6982 2.54045C27.5485 2.54045 34.7575 9.48021 34.7575 18Z"
  />
  <path
    d="M8.36682 19C8.36682 19.0681 8.31013 20 9.59173 20H16.0458C16.4727 20 18.2292 20 18.5899 20C18.9507 20 18.867 20 19.1396 20L28.7492 20C29.2739 19.4483 29.2739 18.5518 28.7492 18.0001C28.1561 18 28.1175 18 27.3065 18L19.1397 18L11.4832 18C7.84742 18 8.36682 18.5546 8.36682 19Z"
  />
</svg>
