<svg width="38" height="36" viewBox="0 0 38 36" fill="gray" xmlns="http://www.w3.org/2000/svg">
  <path
    d="M0.0376091 18C0.0376091 27.9139 8.43358 36 18.7994 36C29.1652 36 37.5612 27.9139 37.5612 18C37.5612 8.08606 29.1329 0 18.7994 0C8.46588 0 0.0376091 8.08606 0.0376091 18ZM34.9132 18C34.9132 26.5198 27.6797 33.4596 18.7994 33.4596C9.91903 33.4596 2.68557 26.5198 2.68557 18C2.68557 9.48021 9.91903 2.54045 18.7994 2.54045C27.6797 2.54045 34.9132 9.48021 34.9132 18Z"
  />
  <path
    d="M9.43451 13.8483C9.17617 14.0962 9.047 14.406 9.047 14.7468C9.047 15.0566 9.17617 15.3974 9.43451 15.6452L17.9596 23.8242C18.218 24.0721 18.5409 24.196 18.8961 24.196C19.2513 24.196 19.5743 24.0721 19.8326 23.8242L28.3577 15.6452C28.8744 15.1495 28.8744 14.344 28.3577 13.8483C27.8411 13.3526 27.0015 13.3526 26.4848 13.8483L18.8961 21.1289L11.3075 13.8483C10.7908 13.3526 9.95119 13.3526 9.43451 13.8483Z"
  />
</svg>
